<svg width="256" height="65" viewBox="0 0 256 65" fill="none" xmlns="http://www.w3.org/2000/svg">
<g clip-path="url(#clip0_1_1223)">
<path d="M99.2879 6.66431H119.63V12.2538H112.497V29.2993H105.502V12.2538H99.2856V6.66431H99.2879Z" fill="#33353C"/>
<path d="M187.929 6.66427V29.2969H181.351V17.9888L174.286 29.2969H167.685V6.66427H174.277V18.3033L183.034 6.66427H187.929ZM185.451 0.309753C185.179 2.07672 184.388 3.50344 183.081 4.5899C181.774 5.67636 180.218 6.22077 178.411 6.22077C176.604 6.22077 175.065 5.67401 173.751 4.58051C172.439 3.48701 171.651 2.06499 171.39 0.3121H174.783C175.33 2.06499 176.513 2.94026 178.334 2.94026C180.284 2.94026 181.525 2.06499 182.058 0.3121H185.451V0.309753Z" fill="#33353C"/>
<path d="M164.768 60.0535H158.071V43.2521H154.968L154.065 49.9492C154.065 50.0524 154.058 50.1557 154.046 50.2589C153.701 52.9458 153.204 54.119 153.042 54.8746C152.758 56.2005 151.057 58.1739 150.96 58.2537C150.425 58.7113 148.661 60.0301 146.211 60.0301C145.46 60.0301 144.587 60.0629 143.616 59.901V54.2199H144.648C145.58 54.2199 146.141 53.6638 146.525 53.2532C146.718 53.049 146.868 52.8449 147.007 52.5914C147.274 52.101 147.427 51.5566 147.481 51.0004L148.792 37.4678H164.77V60.0535H164.768Z" fill="#33353C"/>
<path d="M233.087 60.0534H214.524C214.737 58.2208 215.383 56.496 216.46 54.8816C217.539 53.2671 219.562 51.3594 222.528 49.163C224.339 47.8161 225.499 46.793 226.006 46.0937C226.512 45.3944 226.766 44.7327 226.766 44.1038C226.766 43.4256 226.515 42.846 226.015 42.365C225.513 41.8839 224.884 41.6446 224.124 41.6446C223.363 41.6446 222.687 41.8933 222.188 42.3884C221.688 42.8836 221.35 43.7612 221.179 45.0166L214.981 44.5144C215.225 42.7733 215.671 41.4123 216.319 40.4361C216.967 39.4599 217.882 38.709 219.06 38.1881C220.24 37.6671 221.873 37.4067 223.959 37.4067C226.045 37.4067 227.831 37.6554 229.04 38.1505C230.25 38.6457 231.201 39.4083 231.895 40.4361C232.59 41.4639 232.935 42.6161 232.935 43.8926C232.935 45.2489 232.538 46.5466 231.743 47.7809C230.947 49.0175 229.502 50.3738 227.406 51.8522C226.16 52.7134 225.327 53.3164 224.907 53.659C224.487 54.004 223.992 54.4545 223.427 55.0106H233.087V60.0534Z" fill="#FCC81F"/>
<path d="M246.89 55.8907H235.619V50.801L246.89 37.402H252.282V51.0896H255.077V55.8907H252.282V60.0535H246.89V55.8907ZM246.89 51.0919V44.0827L240.934 51.0919H246.89Z" fill="#FCC81F"/>
<path d="M139.012 19.5837L139.139 19.7421C139.741 20.5645 140.053 21.5923 140.053 22.8556C140.053 23.9472 139.799 24.915 139.302 25.769C138.8 26.6296 138.119 27.3066 137.246 27.8102L137.245 27.8108C136.744 28.1015 135.934 28.3372 134.774 28.4891L134.774 28.4891C133.194 28.6964 132.18 28.7946 131.704 28.7946H121.464V7.16193H132.723C134.826 7.16193 136.363 7.68165 137.409 8.65033C138.476 9.63732 139.002 10.8418 139.002 12.2984C139.002 13.5219 138.624 14.551 137.874 15.4123C137.392 15.9661 136.662 16.4303 135.647 16.7819L134.035 17.3406L135.694 17.7404C137.252 18.1159 138.335 18.7438 139.012 19.5837ZM127.548 11.6904H127.048V12.1904V15.0345V15.5345H127.548H131.394C132.457 15.5345 133.317 14.6747 133.317 13.6125C133.317 12.5502 132.457 11.6904 131.394 11.6904H127.548ZM127.048 23.4657V23.9657H127.548H132.009C133.072 23.9657 133.931 23.1059 133.931 22.0437C133.931 20.9815 133.072 20.1217 132.009 20.1217H127.548H127.048V20.6217V23.4657Z" fill="#33353C" stroke="black"/>
<path d="M153.358 6.66431C147.104 6.66431 142.034 11.7352 142.034 17.9889C142.034 24.2425 147.104 29.3134 153.358 29.3134C159.612 29.3134 164.683 24.2425 164.683 17.9889C164.683 11.7352 159.612 6.66431 153.358 6.66431ZM153.358 23.447C150.699 23.447 148.545 21.0042 148.545 17.9889C148.545 14.9735 150.699 12.5307 153.358 12.5307C156.017 12.5307 158.171 14.9735 158.171 17.9889C158.171 21.0042 156.017 23.447 153.358 23.447Z" fill="#33353C"/>
<path d="M115.166 51.3899C114.342 53.0584 112.77 54.1847 110.963 54.1847C108.304 54.1847 106.15 51.7419 106.15 48.7266C106.15 45.7112 108.304 43.2685 110.963 43.2685C112.777 43.2685 114.354 44.4042 115.175 46.0843L120.382 42.4378C118.35 39.4013 114.891 37.402 110.963 37.402C104.709 37.402 99.6382 42.473 99.6382 48.7266C99.6382 54.9802 104.709 60.0511 110.963 60.0511C115.1 60.0511 118.718 57.8313 120.694 54.5203L115.166 51.3899Z" fill="#33353C"/>
<path d="M180.452 37.7844H174.468L166.6 60.0534H173.626L174.712 55.6536H180.278L181.393 60.0534H188.599L180.454 37.7844H180.452ZM175.778 50.9018L177.401 45.8754L178.985 50.9018H175.778Z" fill="#33353C"/>
<path d="M209.929 53.9992V37.7844H193.796L193.589 42.7568C193.322 47.6283 192.975 52.6218 190.888 54.0016H188.591V64.9249H194.936V60.0745H206.435V64.9249H213.005V54.0016H209.926L209.929 53.9992ZM203.271 54.0602H198.081V53.8256C199.665 51.5072 199.782 43.3552 199.782 43.3552H203.274V54.0602H203.271Z" fill="#33353C"/>
<path d="M143.846 60.0534L135.112 48.1821L142.907 37.4043H135.633L129.689 45.622V37.4043H123.156V60.0534H129.689V51.3781L136.572 60.0534H143.846Z" fill="#33353C"/>
</g>
<defs>
<clipPath id="clip0_1_1223">
<rect width="255.079" height="65" fill="white"/>
</clipPath>
</defs>
</svg>
