<svg width="24" height="24" viewBox="0 0 24 24" fill="none" xmlns="http://www.w3.org/2000/svg">
<path fill-rule="evenodd" clip-rule="evenodd" d="M10.5868 4.79165C7.38577 4.79165 4.79134 7.38549 4.79134 10.5845C4.79134 13.7835 7.38577 16.3773 10.5868 16.3773C12.1882 16.3773 13.6366 15.7292 14.6863 14.6792C15.7352 13.6301 16.3823 12.1836 16.3823 10.5845C16.3823 7.38549 13.7879 4.79165 10.5868 4.79165ZM3.20801 10.5845C3.20801 6.51044 6.51192 3.20831 10.5868 3.20831C14.6618 3.20831 17.9657 6.51044 17.9657 10.5845C17.9657 12.3354 17.3547 13.9446 16.3354 15.2093L21.2265 20.1072C21.5355 20.4166 21.5351 20.9179 21.2257 21.2268C20.9164 21.5358 20.4151 21.5354 20.1062 21.226L15.2159 16.3289C13.9503 17.3491 12.3395 17.9607 10.5868 17.9607C6.51192 17.9607 3.20801 14.6585 3.20801 10.5845Z" fill="#FEC922"/>
</svg>
