<svg width="22" height="24" viewBox="0 0 22 24" fill="none" xmlns="http://www.w3.org/2000/svg">
<path fill-rule="evenodd" clip-rule="evenodd" d="M6.71875 2.85124C6.13605 2.85124 5.58009 3.0958 5.18634 3.52535L4.28905 4.50422H17.7011L16.8038 3.52535C16.4101 3.09581 15.8541 2.85124 15.2714 2.85124H6.71875ZM19.2938 6.30255C19.2755 6.30366 19.2571 6.30422 19.2385 6.30422H2.69535C2.5019 6.62566 2.39766 6.99587 2.39766 7.37618V17.7108C2.39766 19.4073 3.77293 20.7826 5.46942 20.7826H16.5208C18.2173 20.7826 19.5925 19.4073 19.5925 17.7108V7.37618C19.5925 6.99521 19.4879 6.62437 19.2938 6.30255ZM1.54538 4.83572C0.934929 5.54001 0.597656 6.44175 0.597656 7.37618V17.7108C0.597656 20.4014 2.77882 22.5826 5.46942 22.5826H16.5208C19.2114 22.5826 21.3925 20.4014 21.3925 17.7108V7.37618C21.3925 6.40574 21.0288 5.47054 20.373 4.75517L18.1307 2.30905C17.396 1.50757 16.3587 1.05124 15.2714 1.05124H6.71875C5.63149 1.05124 4.59415 1.50757 3.85946 2.30905L1.61719 4.75517C1.60876 4.76436 1.60038 4.7736 1.59205 4.78286C1.57582 4.79986 1.56025 4.8175 1.54538 4.83572ZM10.9951 9.05042C11.4921 9.05042 11.8951 9.45337 11.8951 9.95042V15.313L13.7257 13.5656C14.0852 13.2224 14.6549 13.2357 14.9981 13.5952C15.3414 13.9548 15.3281 14.5245 14.9686 14.8677L11.6165 18.0674C11.2687 18.3993 10.7214 18.3993 10.3737 18.0674L7.02163 14.8677C6.66208 14.5245 6.64883 13.9548 6.99204 13.5952C7.33524 13.2357 7.90494 13.2224 8.26449 13.5656L10.0951 15.313V9.95042C10.0951 9.45337 10.498 9.05042 10.9951 9.05042Z" stroke="#FEC922" stroke-linecap="round" stroke-linejoin="round"/>
</svg>
