<svg width="24" height="16" viewBox="0 0 24 16" fill="none" xmlns="http://www.w3.org/2000/svg">
<path d="M5 14.9999C5.07427 15 5.1508 15 5.22973 15H12M5 14.9999C3.84702 14.9991 3.24223 14.9846 2.77376 14.7459C2.33472 14.5222 1.97802 14.1643 1.75432 13.7253C1.5 13.2262 1.5 12.5737 1.5 11.2669V4.73356C1.5 3.42677 1.5 2.77289 1.75432 2.27376C1.97802 1.83472 2.33472 1.47802 2.77376 1.25432C3.27289 1 3.92677 1 5.23356 1H18.7669C20.0737 1 20.7262 1 21.2253 1.25432C21.6643 1.47802 22.0222 1.83472 22.2459 2.27376C22.5 2.7724 22.5 3.42549 22.5 4.72973V11.2703C22.5 12.5745 22.5 13.2267 22.2459 13.7253C22.0222 14.1643 21.6643 14.5222 21.2253 14.7459C20.7267 15 20.0745 15 18.7703 15H12M5 14.9999C5.00005 13.7113 6.56703 12.6667 8.5 12.6667C10.433 12.6667 12 13.7113 12 15M5 14.9999C5 15 5 14.9999 5 14.9999ZM19 10.3333H14.3333M19 6.83333H15.5M8.5 9.16667C7.21134 9.16667 6.16667 8.122 6.16667 6.83333C6.16667 5.54467 7.21134 4.5 8.5 4.5C9.78866 4.5 10.8333 5.54467 10.8333 6.83333C10.8333 8.122 9.78866 9.16667 8.5 9.16667Z" stroke="#B9B9BA" stroke-width="2" stroke-linecap="round" stroke-linejoin="round"/>
</svg>
